<?xml version="1.0" encoding="UTF-8"?>
<svg version="1.1" xmlns="http://www.w3.org/2000/svg" width="225" height="225">
<path d="M0 0 C74.25 0 148.5 0 225 0 C225 74.25 225 148.5 225 225 C150.75 225 76.5 225 0 225 C0 150.75 0 76.5 0 0 Z " fill="#FDFDFD" transform="translate(0,0)"/>
<path d="M0 0 C43.89 0 87.78 0 133 0 C133 30.69 133 61.38 133 93 C89.11 93 45.22 93 0 93 C0 62.31 0 31.62 0 0 Z " fill="#000000" transform="translate(46,95)"/>
<path d="M0 0 C35.97 0 71.94 0 109 0 C109 17.49 109 34.98 109 53 C73.03 53 37.06 53 0 53 C0 35.51 0 18.02 0 0 Z " fill="#000000" transform="translate(58,0)"/>
<path d="M0 0 C16.5 0 33 0 50 0 C50 17.49 50 34.98 50 53 C49.01 51.68 48.02 50.36 47 49 C41.88581081 42.80919444 36.26790149 37.14899746 30.56640625 31.50390625 C29.68846909 30.62975571 28.81053192 29.75560516 27.9059906 28.85496521 C25.1272522 26.08835894 22.34528039 23.32504024 19.5625 20.5625 C15.87331986 16.90012503 12.187705 13.23419431 8.50390625 9.56640625 C7.65091446 8.7217128 6.79792267 7.87701935 5.91908264 7.00672913 C5.14084641 6.23179611 4.36261017 5.4568631 3.56079102 4.65844727 C2.87130875 3.97420181 2.18182648 3.28995636 1.47145081 2.5849762 C0 1 0 1 0 0 Z " fill="#000000" transform="translate(175,0)"/>
<path d="M0 0 C9.9 0 19.8 0 30 0 C30 13.53 30 27.06 30 41 C20.1 41 10.2 41 0 41 C0 27.47 0 13.94 0 0 Z " fill="#FFFFFF" transform="translate(124,0)"/>
<path d="M0 0 C0.33 0 0.66 0 1 0 C1 7.26 1 14.52 1 22 C-6.26 22 -13.52 22 -21 22 C-17 20 -17 20 -15.0703125 19.17578125 C-8.91401901 16.44377149 -4.62425289 12.84917288 -1.96484375 6.546875 C-1.23144781 4.37738747 -0.57302047 2.21668443 0 0 Z " fill="#060606" transform="translate(224,203)"/>
<path d="M0 0 C2 4 2 4 2.82421875 5.9296875 C5.55622851 12.08598099 9.15082712 16.37574711 15.453125 19.03515625 C17.62261253 19.76855219 19.78331557 20.42697953 22 21 C22 21.33 22 21.66 22 22 C14.74 22 7.48 22 0 22 C0 14.74 0 7.48 0 0 Z " fill="#060606" transform="translate(0,203)"/>
<path d="M0 0 C7.26 0 14.52 0 22 0 C18 2 18 2 16.0703125 2.82421875 C9.31663353 5.82133331 5.07996831 10.1479449 2.125 16.9375 C1.75375 17.948125 1.3825 18.95875 1 20 C0.67 20 0.34 20 0 20 C0 13.4 0 6.8 0 0 Z " fill="#040404" transform="translate(0,0)"/>
</svg>
